<svg width="860" height="64" viewBox="0 0 860 64" xmlns="http://www.w3.org/2000/svg">
<defs></defs>
<style>text{font-family:'JetBrains Mono','Fira Code',Consolas,'SFMono-Regular',Menlo,monospace;}</style>
<rect x="1" y="1" width="858" height="62" rx="12" fill="#05070a" stroke="#39FF14" stroke-opacity="0.55" stroke-width="1.4"/>
<rect x="18.0" y="23.6" width="24" height="16.799999999999997" rx="3" fill="none" stroke="#39FF14" stroke-width="2"/><path d="M 18.0,24.8 L 30.0,33.2 L 42.0,24.8" fill="none" stroke="#39FF14" stroke-width="2" stroke-linejoin="round"/>
<text x="54.0" y="37.0" font-size="13.5" fill="#e9f5e9">joembolinas23@gmail.com</text>
<line x1="286.6666666666667" y1="14" x2="286.6666666666667" y2="50" stroke="#1c3a14" stroke-width="1"/>
<rect x="304.6666666666667" y="20.0" width="24" height="24" rx="4" fill="none" stroke="#0A66C2" stroke-width="2"/><circle cx="311.2666666666667" cy="27.2" r="2.6" fill="#0A66C2"/><line x1="311.2666666666667" y1="30.8" x2="311.2666666666667" y2="38.0" stroke="#0A66C2" stroke-width="2.4" stroke-linecap="round"/><path d="M 316.06666666666666,38.0 v-4.199999999999999 q 0,-3.5999999999999996 3.5999999999999996,-3.5999999999999996 q 3.5999999999999996,0 3.5999999999999996,3.5999999999999996 v4.199999999999999" fill="none" stroke="#0A66C2" stroke-width="2.2" stroke-linecap="round"/>
<text x="340.6666666666667" y="37.0" font-size="13.5" fill="#e9f5e9">linkedin.com/in/joembolinas</text>
<line x1="573.3333333333334" y1="14" x2="573.3333333333334" y2="50" stroke="#1c3a14" stroke-width="1"/>
<circle cx="603.3333333333334" cy="32.0" r="8.399999999999999" fill="none" stroke="#e9f5e9" stroke-width="2"/><path d="M 600.3333333333334,37.4 v-3.5999999999999996 q -3.5999999999999996,0.6000000000000001 -4.199999999999999,-2.4000000000000004 q -0.6000000000000001,-2.4000000000000004 -2.16,-3.0 M 600.3333333333334,35.6 q -4.800000000000001,1.2000000000000002 -4.800000000000001,-4.199999999999999 q 0,-1.7999999999999998 1.2000000000000002,-3.0 q -0.48,-1.7999999999999998 1.2000000000000002,-3.5999999999999996 q 1.7999999999999998,0 3.0,1.44 q 2.4000000000000004,-0.72 4.800000000000001,0 q 1.2000000000000002,-1.44 3.0,-1.44 q 1.6800000000000002,1.7999999999999998 1.2000000000000002,3.5999999999999996 q 1.2000000000000002,1.2000000000000002 1.2000000000000002,3.0 q 0,5.4 -4.800000000000001,4.199999999999999 q 1.2000000000000002,1.2000000000000002 1.2000000000000002,3.0 v3.5999999999999996" fill="none" stroke="#e9f5e9" stroke-width="1.4" stroke-linecap="round" stroke-linejoin="round"/>
<text x="627.3333333333334" y="37.0" font-size="13.5" fill="#e9f5e9">github.com/joembolinas</text>
</svg>