<svg width="170" height="170" viewBox="0 0 170 170" xmlns="http://www.w3.org/2000/svg">
<defs></defs>
<style>text{font-family:'JetBrains Mono','Fira Code',Consolas,'SFMono-Regular',Menlo,monospace;}</style>
<rect x="1" y="1" width="168" height="168" rx="12" fill="#05070a" stroke="#39FF14" stroke-opacity="0.55" stroke-width="1.4"/>
<path d="M 67.0,77.0 A 18,18 0 1 1 67.0,93.0" fill="none" stroke="#39FF14" stroke-opacity="0.45" stroke-width="3" stroke-linecap="round" transform="rotate(-90,85.0,85.0)"/>
<path d="M 58.0,77.0 A 27,27 0 1 1 58.0,93.0" fill="none" stroke="#39FF14" stroke-opacity="0.52" stroke-width="3" stroke-linecap="round" transform="rotate(-90,85.0,85.0)"/>
<path d="M 49.0,77.0 A 36,36 0 1 1 49.0,93.0" fill="none" stroke="#39FF14" stroke-opacity="0.59" stroke-width="3" stroke-linecap="round" transform="rotate(-90,85.0,85.0)"/>
<path d="M 40.0,77.0 A 45,45 0 1 1 40.0,93.0" fill="none" stroke="#39FF14" stroke-opacity="0.66" stroke-width="3" stroke-linecap="round" transform="rotate(-90,85.0,85.0)"/>
<path d="M 31.0,77.0 A 54,54 0 1 1 31.0,93.0" fill="none" stroke="#39FF14" stroke-opacity="0.73" stroke-width="3" stroke-linecap="round" transform="rotate(-90,85.0,85.0)"/>
<path d="M 22.0,77.0 A 63,63 0 1 1 22.0,93.0" fill="none" stroke="#39FF14" stroke-opacity="0.80" stroke-width="3" stroke-linecap="round" transform="rotate(-90,85.0,85.0)"/>
<path d="M 13.0,77.0 A 72,72 0 1 1 13.0,93.0" fill="none" stroke="#39FF14" stroke-opacity="0.87" stroke-width="3" stroke-linecap="round" transform="rotate(-90,85.0,85.0)"/>
<circle cx="85.0" cy="85.0" r="14" fill="none" stroke="#39FF14" stroke-opacity="0.30" stroke-width="2.6" stroke-dasharray="18 6"/>
<circle cx="85.0" cy="85.0" r="23" fill="none" stroke="#39FF14" stroke-opacity="0.36" stroke-width="2.6" stroke-dasharray="22 7"/>
<circle cx="85.0" cy="85.0" r="32" fill="none" stroke="#39FF14" stroke-opacity="0.42" stroke-width="2.6" stroke-dasharray="26 8"/>
<circle cx="85.0" cy="85.0" r="41" fill="none" stroke="#39FF14" stroke-opacity="0.48" stroke-width="2.6" stroke-dasharray="30 9"/>
<circle cx="85.0" cy="85.0" r="50" fill="none" stroke="#39FF14" stroke-opacity="0.54" stroke-width="2.6" stroke-dasharray="34 10"/>
<circle cx="85.0" cy="85.0" r="59" fill="none" stroke="#39FF14" stroke-opacity="0.60" stroke-width="2.6" stroke-dasharray="38 11"/>
<circle cx="85.0" cy="85.0" r="68" fill="none" stroke="#39FF14" stroke-opacity="0.66" stroke-width="2.6" stroke-dasharray="42 12"/>
<circle cx="85.0" cy="85.0" r="4" fill="#39FF14"/>
</svg>