<svg width="420" height="234" viewBox="0 0 420 234" xmlns="http://www.w3.org/2000/svg">
<defs></defs>
<style>text{font-family:'JetBrains Mono','Fira Code',Consolas,'SFMono-Regular',Menlo,monospace;}</style>
<rect x="1" y="1" width="418" height="232" rx="10" fill="#05070a" stroke="#39FF14" stroke-opacity="0.55" stroke-width="1.4"/>
<text x="20" y="32" font-size="13.5" fill="#39FF14" font-weight="700">$ security/</text>
<line x1="20" y1="42" x2="400" y2="42" stroke="#1c3a14" stroke-width="1"/>
<path d="M 71.43333333333334,55.5 q 11.899999999999999,20.4 23.799999999999997,0" fill="none" stroke="#4C82C9" stroke-width="2.2" stroke-linecap="round"/><path d="M 75.68333333333334,52.1 q 7.65,22.1 15.3,0" fill="none" stroke="#4C82C9" stroke-width="1.6" stroke-opacity="0.7" stroke-linecap="round"/>
<text x="83.33333333333334" y="92" font-size="11.5" fill="#e9f5e9" text-anchor="middle">Kali Linux</text>
<circle cx="210.00000000000003" cy="64" r="11.899999999999999" fill="none" stroke="#4682B4" stroke-width="2"/><circle cx="210.00000000000003" cy="64" r="3.74" fill="#4682B4"/><line x1="218.50000000000003" y1="72.5" x2="226.15000000000003" y2="80.15" stroke="#4682B4" stroke-width="2.4" stroke-linecap="round"/>
<text x="210.00000000000003" y="92" font-size="11.5" fill="#e9f5e9" text-anchor="middle">Nmap</text>
<ellipse cx="336.6666666666667" cy="64" rx="14.45" ry="9.350000000000001" fill="none" stroke="#3399CC" stroke-width="2"/><circle cx="336.6666666666667" cy="64" r="3.06" fill="#3399CC"/>
<text x="336.6666666666667" y="92" font-size="11.5" fill="#e9f5e9" text-anchor="middle">Wireshark</text>
<circle cx="83.33333333333334" cy="156" r="11.899999999999999" fill="none" stroke="#FF6633" stroke-width="2"/><path d="M 83.33333333333334,149.2 L 78.23333333333335,158.55 L 84.18333333333334,158.55 L 80.78333333333335,164.5" fill="none" stroke="#FF6633" stroke-width="1.8" stroke-linejoin="round" stroke-linecap="round"/>
<text x="83.33333333333334" y="184" font-size="11.5" fill="#e9f5e9" text-anchor="middle">Burp Suite</text>
<path d="M 199.80000000000004,164.5 L 199.80000000000004,154.3 L 210.00000000000003,144.95 L 220.20000000000002,154.3 L 220.20000000000002,164.5 Z" fill="none" stroke="#39FF14" stroke-width="2" stroke-linejoin="round"/>
<text x="210.00000000000003" y="184" font-size="11.5" fill="#e9f5e9" text-anchor="middle">TryHackMe</text>
</svg>